<?xml version="1.0" encoding="utf-8"?>
<!-- Generator: Adobe Illustrator 24.0.2, SVG Export Plug-In . SVG Version: 6.00 Build 0)  -->
<svg version="1.1" id="Layer_1" xmlns="http://www.w3.org/2000/svg" xmlns:xlink="http://www.w3.org/1999/xlink" x="0px" y="0px"
	 viewBox="0 0 410.6 205.3" style="enable-background:new 0 0 410.6 205.3;" xml:space="preserve">
<style type="text/css">
	.st0{fill:#EFEFEF;}
	.st1{fill:#3D3D3D;stroke:#3D3D3D;stroke-miterlimit:10;}
	.st2{fill:#3D3D3D;}
	.st3{fill:#FFE373;stroke:#3D3D3D;stroke-width:2;stroke-miterlimit:10;}
</style>
<title>Asset 1</title>
<g id="Layer_2_1_">
	<g id="Layer_1-2">
		<rect x="0.5" y="0.5" class="st0" width="409.6" height="204.3"/>
		<path class="st1" d="M409.6,1v203.3H1V1H409.6 M410.6,0H0v205.3h410.6V0z"/>
		<path class="st2" d="M210,79.6l15.9-1c0.2,2.1,0.9,4.2,2.1,5.9c1.8,2.2,4.6,3.4,7.4,3.3c2,0.2,4-0.4,5.6-1.7
			c1.2-0.9,1.9-2.4,1.9-3.9c0-1.5-0.7-2.8-1.8-3.8c-1.2-1.1-4.1-2.2-8.6-3.2c-7.3-1.6-12.6-3.8-15.7-6.6c-3.1-2.6-4.8-6.5-4.7-10.5
			c0-2.8,0.8-5.6,2.4-7.9c1.8-2.6,4.3-4.6,7.3-5.8c3.2-1.4,7.7-2.1,13.3-2.1c6.9,0,12.2,1.3,15.8,3.9s5.8,6.7,6.5,12.3l-15.8,0.9
			c-0.2-4.1-3.8-7.3-7.9-7c-0.1,0-0.2,0-0.3,0c-1.6-0.1-3.1,0.3-4.4,1.2c-0.9,0.7-1.5,1.8-1.5,3c0,0.9,0.5,1.8,1.2,2.3
			c0.8,0.7,2.7,1.4,5.6,2c7.3,1.6,12.6,3.2,15.8,4.8c2.8,1.3,5.2,3.4,6.9,6c1.5,2.4,2.2,5.2,2.1,8.1c0,3.4-1,6.8-2.9,9.6
			c-2,3-4.8,5.3-8.1,6.7c-4.1,1.7-8.6,2.4-13,2.3c-9.2,0-15.6-1.8-19.2-5.3C212.5,89.5,210.3,84.7,210,79.6z M40.8,97.6V43.3h28
			c5.2,0,9.2,0.4,11.9,1.3c2.7,0.9,5,2.6,6.6,5c1.7,2.6,2.6,5.7,2.5,8.8c0.2,5.4-2.6,10.4-7.2,13.1c-1.8,1-3.8,1.8-5.9,2.1
			c1.5,0.5,3,1.1,4.4,2c1,0.8,1.9,1.8,2.7,2.8c0.9,1,1.6,2.2,2.3,3.4l8.1,15.7h-19l-9-16.7c-0.7-1.6-1.7-3-3-4.2
			c-1.2-0.8-2.7-1.3-4.1-1.3h-1.5v22L40.8,97.6L40.8,97.6z M57.5,65.3h7.1c1.5-0.1,3-0.4,4.4-0.7c1.1-0.2,2.1-0.8,2.7-1.7
			c1.7-2.2,1.4-5.3-0.6-7.2c-1.1-0.9-3.2-1.4-6.3-1.4h-7.4L57.5,65.3z M36.9,144l16-1c0.2,2.1,0.9,4.2,2.1,5.9
			c1.8,2.2,4.5,3.5,7.4,3.3c2,0.1,3.9-0.5,5.5-1.7c1.2-0.9,1.9-2.4,1.9-3.9c0-1.5-0.7-2.9-1.9-3.8c-1.2-1.1-4.1-2.2-8.6-3.1
			c-7.3-1.6-12.6-3.8-15.7-6.6c-3.1-2.6-4.8-6.5-4.7-10.5c0-2.8,0.8-5.6,2.4-7.9c1.8-2.6,4.3-4.6,7.3-5.8c3.2-1.4,7.7-2.1,13.3-2.1
			c6.9,0,12.2,1.3,15.8,3.9s5.8,6.7,6.4,12.3L68.5,124c-0.2-2-1.2-3.9-2.7-5.3c-1.6-1.2-3.6-1.8-5.6-1.6c-1.6-0.1-3.1,0.3-4.4,1.3
			c-1,0.7-1.5,1.8-1.5,3c0,0.9,0.5,1.8,1.2,2.3c0.8,0.7,2.7,1.4,5.6,2c7.3,1.6,12.6,3.2,15.8,4.8c2.8,1.3,5.2,3.4,6.9,6
			c1.4,2.4,2.2,5.2,2.2,8c0,3.4-1,6.8-2.9,9.6c-2,3-4.8,5.3-8.1,6.7c-4.1,1.6-8.6,2.4-13,2.3c-9.2,0-15.6-1.8-19.2-5.3
			C39.4,154,37.2,149.1,36.9,144z"/>
		<path class="st2" d="M117.6,139.8l14.7,4.4c-0.8,3.7-2.4,7.2-4.7,10.3c-2.1,2.7-4.8,4.9-7.9,6.2c-3.8,1.5-7.9,2.3-12,2.1
			c-5.9,0-10.7-0.9-14.4-2.5s-7-4.7-9.7-9s-4.1-9.8-4.1-16.6c0-9,2.4-15.9,7.2-20.7s11.5-7.2,20.3-7.2c6.9,0,12.2,1.4,16.1,4.1
			s6.8,7,8.7,12.7L117,127c-0.4-1.3-0.9-2.5-1.6-3.6c-0.9-1.3-2.1-2.3-3.4-3c-4.7-2.2-10.3-0.7-13.3,3.6c-1.5,2.3-2.3,5.8-2.3,10.7
			c0,6,0.9,10.1,2.7,12.4c1.9,2.3,4.8,3.5,7.7,3.3c3.2,0,5.6-0.9,7.3-2.7C115.9,145.4,117.1,142.6,117.6,139.8L117.6,139.8z
			 M151.8,107.8h16.7v19h18.3v-19h16.9V162h-16.9v-22h-18.3v22h-16.7L151.8,107.8z"/>
		<path class="st2" d="M201.4,134.9c0-8.9,2.5-15.8,7.4-20.7s11.8-7.4,20.6-7.4c9,0,15.9,2.4,20.9,7.3s7.3,11.6,7.3,20.4
			c0,6.4-1.1,11.5-3.2,15.6c-2.1,4-5.3,7.3-9.2,9.5c-4.1,2.2-9.1,3.4-15.1,3.4s-11.2-1-15.2-2.9c-4.1-2-7.5-5.2-9.8-9.2
			C202.7,146.5,201.4,141.2,201.4,134.9z M218.2,134.9c0,5.5,1,9.4,3,11.8c2.1,2.4,5.1,3.7,8.3,3.6c3.6,0,6.4-1.1,8.4-3.5
			s3-6.5,3-12.6c0-5.1-1-8.9-3.1-11.2c-2.1-2.4-5.2-3.7-8.4-3.5c-3.1-0.1-6.1,1.2-8.1,3.6C219.2,125.4,218.2,129.4,218.2,134.9
			L218.2,134.9z M274.8,134.9c0-8.9,2.5-15.8,7.4-20.7s11.8-7.4,20.6-7.4c9,0,16,2.4,20.9,7.3s7.3,11.6,7.3,20.4
			c0,6.4-1.1,11.5-3.2,15.6c-2.1,4-5.3,7.3-9.2,9.5c-4.1,2.2-9.1,3.4-15.1,3.4s-11.1-1-15.2-2.9c-4.1-2-7.5-5.2-9.8-9.2
			C276.1,146.5,274.8,141.2,274.8,134.9z M291.5,134.9c0,5.5,1,9.4,3,11.8c4.4,4.6,11.7,4.8,16.4,0.4c0.1-0.1,0.2-0.2,0.3-0.3
			c2-2.4,3-6.5,3-12.6c0-5.1-1-8.9-3.1-11.2c-2.1-2.4-5.2-3.7-8.4-3.5c-3.1-0.1-6.1,1.2-8.1,3.6
			C292.6,125.4,291.5,129.4,291.5,134.9z"/>
		<path class="st2" d="M329.2,107.7H346v40.9h26.1V162h-43L329.2,107.7L329.2,107.7z"/>
		
			<ellipse transform="matrix(0.7986 -0.6018 0.6018 0.7986 12.1346 191.0173)" class="st3" cx="291.5" cy="77.4" rx="38.2" ry="31.4"/>
		<path class="st2" d="M274.5,73.4l6.1-4.2l7.5,10.6c1.3,1.7,2.3,3.5,3,5.5c0.4,1.5,0.3,3.2-0.3,4.6c-0.8,1.8-2.1,3.4-3.8,4.4
			c-1.5,1.2-3.3,2-5.2,2.4c-1.4,0.2-2.9,0-4.2-0.6c-1.5-0.7-2.7-1.8-3.7-3.1l5.2-4.8c0.4,0.7,1,1.3,1.6,1.8c0.4,0.3,0.9,0.5,1.5,0.5
			c0.4,0,0.8-0.2,1.1-0.4c0.6-0.4,1-1.1,1-1.8c-0.2-1-0.6-2-1.3-2.9L274.5,73.4L274.5,73.4z M292.7,80.1l5.5-4.4
			c0.6,0.7,1.4,1.3,2.2,1.6c1.2,0.4,2.5,0.1,3.5-0.7c0.7-0.5,1.3-1.2,1.6-2c0.3-1.1-0.3-2.3-1.3-2.6c-0.2-0.1-0.4-0.1-0.5-0.1
			c-1.4,0.1-2.7,0.4-3.9,1c-3.1,1.3-5.5,1.8-7.3,1.6c-1.8-0.2-3.4-1.1-4.4-2.6c-0.7-1-1.1-2.2-1.1-3.5c0-1.4,0.4-2.8,1.1-3.9
			c1.1-1.6,2.6-3,4.3-4.1c2.5-1.8,4.8-2.6,6.7-2.6c2.1,0.1,4.1,1.1,5.5,2.8l-5.5,4.3c-1.1-1.4-3.1-1.7-4.5-0.6l-0.2,0.2
			c-0.6,0.4-1.1,0.9-1.3,1.6c-0.2,0.5-0.1,1,0.3,1.5c0.2,0.3,0.6,0.5,1,0.5c0.9,0,1.8-0.3,2.5-0.7c2.2-1,4.6-1.8,7-2.3
			c1.3-0.3,2.7-0.1,4,0.4c1.1,0.5,2.1,1.3,2.8,2.4c0.9,1.2,1.4,2.7,1.4,4.2c0.1,1.6-0.4,3.1-1.2,4.4c-1.1,1.6-2.5,3-4.1,4.1
			c-3.3,2.3-6.1,3.3-8.3,2.9C296.2,83.1,294.1,81.9,292.7,80.1L292.7,80.1z"/>
	</g>
</g>
</svg>
